<svg xmlns="http://www.w3.org/2000/svg" xmlns:xlink="http://www.w3.org/1999/xlink" width="500" zoomAndPan="magnify" viewBox="0 0 375 103.5" height="138" preserveAspectRatio="xMidYMid meet" version="1.0"><defs><g/><clipPath id="0a78308819"><path d="M 0.902344 0 L 374.097656 0 L 374.097656 103.003906 L 0.902344 103.003906 Z M 0.902344 0 " clip-rule="nonzero"/></clipPath><clipPath id="35ee6474b1"><path d="M 12.097656 0 L 362.902344 0 C 365.871094 0 368.71875 1.183594 370.816406 3.285156 C 372.917969 5.390625 374.097656 8.246094 374.097656 11.21875 L 374.097656 91.78125 C 374.097656 94.757812 372.917969 97.613281 370.816406 99.714844 C 368.71875 101.820312 365.871094 103.003906 362.902344 103.003906 L 12.097656 103.003906 C 9.128906 103.003906 6.28125 101.820312 4.183594 99.714844 C 2.082031 97.613281 0.902344 94.757812 0.902344 91.78125 L 0.902344 11.21875 C 0.902344 8.246094 2.082031 5.390625 4.183594 3.285156 C 6.28125 1.183594 9.128906 0 12.097656 0 " clip-rule="nonzero"/></clipPath><clipPath id="cfbdf977e5"><path d="M 11.203125 9.769531 L 140 9.769531 L 140 93.234375 L 11.203125 93.234375 Z M 11.203125 9.769531 " clip-rule="nonzero"/></clipPath></defs><g clip-path="url(#0a78308819)"><g clip-path="url(#35ee6474b1)"><path stroke-linecap="butt" transform="matrix(0.746394, 0, 0, 0.748003, 0.902554, 0.00000298558)" fill="none" stroke-linejoin="miter" d="M 14.998914 -0.0000039914 L 484.998129 -0.0000039914 C 488.975584 -0.0000039914 492.790802 1.582333 495.601189 4.391896 C 498.416809 7.206682 499.997324 11.024136 499.997324 14.998258 L 499.997324 122.701652 C 499.997324 126.680996 498.416809 130.49845 495.601189 133.308013 C 492.790802 136.122798 488.975584 137.705136 484.998129 137.705136 L 14.998914 137.705136 C 11.021458 137.705136 7.206241 136.122798 4.395854 133.308013 C 1.580234 130.49845 -0.000281398 126.680996 -0.000281398 122.701652 L -0.000281398 14.998258 C -0.000281398 11.024136 1.580234 7.206682 4.395854 4.391896 C 7.206241 1.582333 11.021458 -0.0000039914 14.998914 -0.0000039914 " stroke="#bc8a5f" stroke-width="12" stroke-opacity="1" stroke-miterlimit="4"/></g></g><g clip-path="url(#cfbdf977e5)"><path fill="#bc8a5f" d="M 11.203125 9.769531 L 139.902344 9.769531 L 139.902344 94.089844 L 11.203125 94.089844 Z M 11.203125 9.769531 " fill-opacity="1" fill-rule="nonzero"/></g><g fill="#ffffff" fill-opacity="1"><g transform="translate(22.813245, 67.742822)"><g><path d="M 22.078125 -8.65625 C 21.910156 -7.320312 21.566406 -6.097656 21.046875 -4.984375 C 20.535156 -3.878906 19.867188 -2.925781 19.046875 -2.125 C 18.222656 -1.320312 17.25 -0.703125 16.125 -0.265625 C 15 0.171875 13.742188 0.390625 12.359375 0.390625 C 11.171875 0.390625 10.09375 0.222656 9.125 -0.109375 C 8.15625 -0.441406 7.289062 -0.90625 6.53125 -1.5 C 5.769531 -2.09375 5.113281 -2.789062 4.5625 -3.59375 C 4.019531 -4.394531 3.566406 -5.269531 3.203125 -6.21875 C 2.847656 -7.175781 2.582031 -8.171875 2.40625 -9.203125 C 2.226562 -10.242188 2.128906 -11.300781 2.109375 -12.375 L 2.109375 -16.390625 C 2.128906 -17.453125 2.226562 -18.503906 2.40625 -19.546875 C 2.582031 -20.585938 2.847656 -21.582031 3.203125 -22.53125 C 3.566406 -23.476562 4.019531 -24.359375 4.5625 -25.171875 C 5.113281 -25.984375 5.769531 -26.6875 6.53125 -27.28125 C 7.289062 -27.875 8.148438 -28.335938 9.109375 -28.671875 C 10.078125 -29.003906 11.160156 -29.171875 12.359375 -29.171875 C 13.796875 -29.171875 15.078125 -28.953125 16.203125 -28.515625 C 17.335938 -28.078125 18.3125 -27.453125 19.125 -26.640625 C 19.945312 -25.828125 20.601562 -24.851562 21.09375 -23.71875 C 21.59375 -22.582031 21.921875 -21.332031 22.078125 -19.96875 L 18.421875 -19.96875 C 18.304688 -20.832031 18.101562 -21.640625 17.8125 -22.390625 C 17.519531 -23.148438 17.128906 -23.8125 16.640625 -24.375 C 16.148438 -24.9375 15.550781 -25.378906 14.84375 -25.703125 C 14.144531 -26.023438 13.316406 -26.1875 12.359375 -26.1875 C 11.484375 -26.1875 10.710938 -26.046875 10.046875 -25.765625 C 9.378906 -25.484375 8.804688 -25.097656 8.328125 -24.609375 C 7.847656 -24.117188 7.445312 -23.550781 7.125 -22.90625 C 6.800781 -22.257812 6.539062 -21.570312 6.34375 -20.84375 C 6.144531 -20.125 6.003906 -19.382812 5.921875 -18.625 C 5.835938 -17.875 5.796875 -17.140625 5.796875 -16.421875 L 5.796875 -12.375 C 5.796875 -11.664062 5.835938 -10.929688 5.921875 -10.171875 C 6.003906 -9.410156 6.144531 -8.664062 6.34375 -7.9375 C 6.539062 -7.207031 6.796875 -6.519531 7.109375 -5.875 C 7.429688 -5.226562 7.832031 -4.65625 8.3125 -4.15625 C 8.800781 -3.664062 9.375 -3.273438 10.03125 -2.984375 C 10.695312 -2.703125 11.472656 -2.5625 12.359375 -2.5625 C 13.316406 -2.5625 14.144531 -2.710938 14.84375 -3.015625 C 15.550781 -3.328125 16.148438 -3.753906 16.640625 -4.296875 C 17.128906 -4.847656 17.519531 -5.492188 17.8125 -6.234375 C 18.101562 -6.984375 18.304688 -7.789062 18.421875 -8.65625 Z M 22.078125 -8.65625 "/></g></g></g><g fill="#ffffff" fill-opacity="1"><g transform="translate(50.189991, 67.742822)"><g><path d="M 17.171875 -7.453125 L 7.578125 -7.453125 L 5.265625 0 L 1.59375 0 L 10.890625 -28.78125 L 13.953125 -28.78125 L 23.09375 0 L 19.453125 0 Z M 8.5625 -10.640625 L 16.203125 -10.640625 L 12.421875 -23.125 Z M 8.5625 -10.640625 "/></g></g></g><g fill="#ffffff" fill-opacity="1"><g transform="translate(77.566737, 67.742822)"><g><path d="M 19.453125 -12.703125 L 7.46875 -12.703125 L 7.46875 0 L 3.78125 0 L 3.78125 -28.78125 L 21.453125 -28.78125 L 21.453125 -25.65625 L 7.46875 -25.65625 L 7.46875 -15.8125 L 19.453125 -15.8125 Z M 19.453125 -12.703125 "/></g></g></g><g fill="#ffffff" fill-opacity="1"><g transform="translate(104.943486, 67.742822)"><g><path d="M 19.28125 -13.296875 L 7.25 -13.296875 L 7.25 -3.109375 L 21.265625 -3.109375 L 21.265625 0 L 3.59375 0 L 3.59375 -28.78125 L 21.09375 -28.78125 L 21.09375 -25.65625 L 7.25 -25.65625 L 7.25 -16.40625 L 19.28125 -16.40625 Z M 19.28125 -13.296875 "/></g></g></g><g fill="#bc8a5f" fill-opacity="1"><g transform="translate(145.499253, 69.982005)"><g><path d="M 11.609375 -15.015625 L 8.015625 -10.921875 L 8.015625 0 L 3.8125 0 L 3.8125 -32.328125 L 8.015625 -32.328125 L 8.015625 -16.546875 L 11.140625 -20.453125 L 20.625 -32.328125 L 25.625 -32.328125 L 14.3125 -18.1875 L 26.375 0 L 21.375 0 Z M 11.609375 -15.015625 "/></g></g></g><g fill="#bc8a5f" fill-opacity="1"><g transform="translate(172.779736, 69.982005)"><g><path d="M 21.640625 -14.9375 L 8.140625 -14.9375 L 8.140625 -3.484375 L 23.890625 -3.484375 L 23.890625 0 L 4.046875 0 L 4.046875 -32.328125 L 23.6875 -32.328125 L 23.6875 -28.8125 L 8.140625 -28.8125 L 8.140625 -18.421875 L 21.640625 -18.421875 Z M 21.640625 -14.9375 "/></g></g></g><g fill="#bc8a5f" fill-opacity="1"><g transform="translate(200.060218, 69.982005)"><g><path d="M 13.390625 -16.09375 L 20.765625 -32.328125 L 25.421875 -32.328125 L 15.359375 -12.0625 L 15.296875 0 L 11.484375 0 L 11.40625 -12.0625 L 1.359375 -32.328125 L 6.03125 -32.328125 Z M 13.390625 -16.09375 "/></g></g></g><g fill="#bc8a5f" fill-opacity="1"><g transform="translate(227.340701, 69.982005)"><g><path d="M 3.8125 0 L 3.8125 -32.328125 L 13.4375 -32.328125 C 14.769531 -32.304688 16.070312 -32.128906 17.34375 -31.796875 C 18.613281 -31.460938 19.742188 -30.945312 20.734375 -30.25 C 21.722656 -29.5625 22.515625 -28.675781 23.109375 -27.59375 C 23.703125 -26.507812 23.992188 -25.21875 23.984375 -23.71875 C 23.960938 -22.875 23.820312 -22.101562 23.5625 -21.40625 C 23.300781 -20.707031 22.945312 -20.078125 22.5 -19.515625 C 22.050781 -18.960938 21.519531 -18.476562 20.90625 -18.0625 C 20.300781 -17.65625 19.660156 -17.300781 18.984375 -17 C 19.835938 -16.75 20.625 -16.390625 21.34375 -15.921875 C 22.0625 -15.460938 22.679688 -14.898438 23.203125 -14.234375 C 23.722656 -13.578125 24.125 -12.832031 24.40625 -12 C 24.695312 -11.175781 24.84375 -10.285156 24.84375 -9.328125 C 24.851562 -7.816406 24.5625 -6.484375 23.96875 -5.328125 C 23.382812 -4.171875 22.59375 -3.203125 21.59375 -2.421875 C 20.601562 -1.648438 19.460938 -1.054688 18.171875 -0.640625 C 16.878906 -0.222656 15.546875 -0.0078125 14.171875 0 Z M 7.953125 -15.125 L 7.953125 -3.484375 L 14.28125 -3.484375 C 15.132812 -3.503906 15.945312 -3.648438 16.71875 -3.921875 C 17.488281 -4.191406 18.164062 -4.570312 18.75 -5.0625 C 19.34375 -5.550781 19.8125 -6.148438 20.15625 -6.859375 C 20.507812 -7.566406 20.6875 -8.375 20.6875 -9.28125 C 20.707031 -10.195312 20.554688 -11.007812 20.234375 -11.71875 C 19.921875 -12.425781 19.484375 -13.03125 18.921875 -13.53125 C 18.359375 -14.03125 17.695312 -14.410156 16.9375 -14.671875 C 16.1875 -14.941406 15.375 -15.09375 14.5 -15.125 Z M 7.953125 -18.53125 L 13.671875 -18.53125 C 14.441406 -18.550781 15.195312 -18.675781 15.9375 -18.90625 C 16.675781 -19.132812 17.332031 -19.46875 17.90625 -19.90625 C 18.488281 -20.34375 18.957031 -20.878906 19.3125 -21.515625 C 19.664062 -22.148438 19.84375 -22.890625 19.84375 -23.734375 C 19.84375 -24.640625 19.671875 -25.410156 19.328125 -26.046875 C 18.984375 -26.679688 18.515625 -27.203125 17.921875 -27.609375 C 17.335938 -28.015625 16.664062 -28.3125 15.90625 -28.5 C 15.144531 -28.695312 14.363281 -28.800781 13.5625 -28.8125 L 7.953125 -28.8125 Z M 7.953125 -18.53125 "/></g></g></g><g fill="#bc8a5f" fill-opacity="1"><g transform="translate(254.621183, 69.982005)"><g><path d="M 24.890625 -14.296875 C 24.867188 -13.140625 24.765625 -11.972656 24.578125 -10.796875 C 24.398438 -9.617188 24.117188 -8.484375 23.734375 -7.390625 C 23.347656 -6.296875 22.851562 -5.273438 22.25 -4.328125 C 21.65625 -3.378906 20.941406 -2.550781 20.109375 -1.84375 C 19.285156 -1.132812 18.335938 -0.578125 17.265625 -0.171875 C 16.191406 0.234375 14.988281 0.4375 13.65625 0.4375 C 12.320312 0.4375 11.117188 0.234375 10.046875 -0.171875 C 8.972656 -0.578125 8.019531 -1.132812 7.1875 -1.84375 C 6.363281 -2.550781 5.644531 -3.378906 5.03125 -4.328125 C 4.425781 -5.285156 3.925781 -6.3125 3.53125 -7.40625 C 3.144531 -8.507812 2.851562 -9.644531 2.65625 -10.8125 C 2.46875 -11.976562 2.367188 -13.140625 2.359375 -14.296875 L 2.359375 -17.984375 C 2.367188 -19.140625 2.46875 -20.304688 2.65625 -21.484375 C 2.84375 -22.660156 3.128906 -23.796875 3.515625 -24.890625 C 3.910156 -25.984375 4.40625 -27.003906 5 -27.953125 C 5.601562 -28.910156 6.316406 -29.75 7.140625 -30.46875 C 7.972656 -31.1875 8.925781 -31.75 10 -32.15625 C 11.070312 -32.5625 12.273438 -32.765625 13.609375 -32.765625 C 14.941406 -32.765625 16.144531 -32.5625 17.21875 -32.15625 C 18.300781 -31.75 19.253906 -31.191406 20.078125 -30.484375 C 20.910156 -29.773438 21.628906 -28.941406 22.234375 -27.984375 C 22.835938 -27.023438 23.332031 -26 23.71875 -24.90625 C 24.113281 -23.8125 24.398438 -22.671875 24.578125 -21.484375 C 24.765625 -20.304688 24.867188 -19.140625 24.890625 -17.984375 Z M 20.828125 -18.03125 C 20.804688 -18.800781 20.75 -19.601562 20.65625 -20.4375 C 20.570312 -21.269531 20.421875 -22.097656 20.203125 -22.921875 C 19.992188 -23.742188 19.710938 -24.523438 19.359375 -25.265625 C 19.003906 -26.015625 18.5625 -26.675781 18.03125 -27.25 C 17.5 -27.820312 16.867188 -28.273438 16.140625 -28.609375 C 15.410156 -28.941406 14.566406 -29.109375 13.609375 -29.109375 C 12.660156 -29.109375 11.820312 -28.9375 11.09375 -28.59375 C 10.375 -28.25 9.75 -27.789062 9.21875 -27.21875 C 8.6875 -26.65625 8.238281 -26 7.875 -25.25 C 7.519531 -24.507812 7.234375 -23.726562 7.015625 -22.90625 C 6.804688 -22.082031 6.65625 -21.25 6.5625 -20.40625 C 6.46875 -19.570312 6.410156 -18.78125 6.390625 -18.03125 L 6.390625 -14.296875 C 6.410156 -13.546875 6.46875 -12.75 6.5625 -11.90625 C 6.65625 -11.0625 6.8125 -10.226562 7.03125 -9.40625 C 7.257812 -8.582031 7.550781 -7.789062 7.90625 -7.03125 C 8.257812 -6.28125 8.703125 -5.617188 9.234375 -5.046875 C 9.765625 -4.484375 10.390625 -4.03125 11.109375 -3.6875 C 11.835938 -3.34375 12.6875 -3.171875 13.65625 -3.171875 C 14.613281 -3.171875 15.457031 -3.34375 16.1875 -3.6875 C 16.925781 -4.03125 17.554688 -4.484375 18.078125 -5.046875 C 18.609375 -5.617188 19.046875 -6.273438 19.390625 -7.015625 C 19.742188 -7.765625 20.023438 -8.550781 20.234375 -9.375 C 20.453125 -10.195312 20.597656 -11.03125 20.671875 -11.875 C 20.753906 -12.71875 20.804688 -13.523438 20.828125 -14.296875 Z M 20.828125 -18.03125 "/></g></g></g><g fill="#bc8a5f" fill-opacity="1"><g transform="translate(281.901666, 69.982005)"><g><path d="M 19.296875 -8.375 L 8.5 -8.375 L 5.90625 0 L 1.796875 0 L 12.234375 -32.328125 L 15.671875 -32.328125 L 25.9375 0 L 21.84375 0 Z M 9.609375 -11.9375 L 18.203125 -11.9375 L 13.9375 -25.96875 Z M 9.609375 -11.9375 "/></g></g></g><g fill="#bc8a5f" fill-opacity="1"><g transform="translate(309.182148, 69.982005)"><g><path d="M 14.5625 -13.1875 L 8.109375 -13.1875 L 8.109375 0 L 4.015625 0 L 4.015625 -32.328125 L 13.5 -32.328125 C 15.007812 -32.296875 16.429688 -32.078125 17.765625 -31.671875 C 19.097656 -31.273438 20.257812 -30.675781 21.25 -29.875 C 22.25 -29.082031 23.035156 -28.082031 23.609375 -26.875 C 24.179688 -25.664062 24.46875 -24.25 24.46875 -22.625 C 24.46875 -21.570312 24.316406 -20.609375 24.015625 -19.734375 C 23.710938 -18.859375 23.289062 -18.066406 22.75 -17.359375 C 22.21875 -16.648438 21.582031 -16.019531 20.84375 -15.46875 C 20.101562 -14.925781 19.289062 -14.460938 18.40625 -14.078125 L 25.265625 -0.265625 L 25.25 0 L 20.90625 0 Z M 8.109375 -16.5625 L 13.609375 -16.5625 C 14.523438 -16.570312 15.390625 -16.710938 16.203125 -16.984375 C 17.015625 -17.265625 17.726562 -17.660156 18.34375 -18.171875 C 18.957031 -18.691406 19.441406 -19.328125 19.796875 -20.078125 C 20.160156 -20.828125 20.34375 -21.691406 20.34375 -22.671875 C 20.34375 -23.703125 20.171875 -24.601562 19.828125 -25.375 C 19.484375 -26.15625 19.007812 -26.804688 18.40625 -27.328125 C 17.800781 -27.859375 17.078125 -28.253906 16.234375 -28.515625 C 15.398438 -28.785156 14.488281 -28.929688 13.5 -28.953125 L 8.109375 -28.953125 Z M 8.109375 -16.5625 "/></g></g></g><g fill="#bc8a5f" fill-opacity="1"><g transform="translate(336.462631, 69.982005)"><g><path d="M 3.4375 0 L 3.4375 -32.328125 L 10.921875 -32.328125 C 13.171875 -32.296875 15.179688 -31.910156 16.953125 -31.171875 C 18.722656 -30.441406 20.21875 -29.421875 21.4375 -28.109375 C 22.65625 -26.804688 23.585938 -25.238281 24.234375 -23.40625 C 24.878906 -21.582031 25.207031 -19.5625 25.21875 -17.34375 L 25.21875 -14.96875 C 25.207031 -12.75 24.878906 -10.722656 24.234375 -8.890625 C 23.585938 -7.066406 22.65625 -5.5 21.4375 -4.1875 C 20.21875 -2.875 18.722656 -1.847656 16.953125 -1.109375 C 15.179688 -0.378906 13.171875 -0.0078125 10.921875 0 Z M 7.609375 -28.953125 L 7.609375 -3.359375 L 10.921875 -3.359375 C 12.671875 -3.367188 14.179688 -3.671875 15.453125 -4.265625 C 16.722656 -4.867188 17.773438 -5.6875 18.609375 -6.71875 C 19.453125 -7.757812 20.078125 -8.984375 20.484375 -10.390625 C 20.890625 -11.796875 21.097656 -13.320312 21.109375 -14.96875 L 21.109375 -17.390625 C 21.097656 -19.023438 20.882812 -20.539062 20.46875 -21.9375 C 20.050781 -23.34375 19.425781 -24.554688 18.59375 -25.578125 C 17.769531 -26.609375 16.722656 -27.421875 15.453125 -28.015625 C 14.179688 -28.609375 12.671875 -28.921875 10.921875 -28.953125 Z M 7.609375 -28.953125 "/></g></g></g></svg>